<?xml version="1.0" encoding="UTF-8"?>
<svg width="2452.1" height="921.33" version="1.1" viewBox="0 -1.7407 251.1 96.186" xmlns="http://www.w3.org/2000/svg">
 <g transform="translate(-2.4994 -1.7407)" fill="#fff">
  <path d="m165.35 96.185 38.859-96.185h-25.761l-26.58 62.157-18.904-62.157h-19.802l-20.294 62.157-14.313-28.324-12.952 39.827 13.15 22.526h25.353l18.34-55.741 17.486 55.741z"/>
  <path d="m24.393 63.166h15.827c4.795 0 9.064-0.535 12.808-1.606l4.094-12.618 11.44-35.264a28.175 28.175 0 0 0-2.986-3.92c-5.872-6.505-14.467-9.758-25.782-9.758h-39.794v96.185h24.393zm20.95-41.038c2.295 2.31 3.442 5.402 3.442 9.276 0 3.903-1.01 6.998-3.027 9.286-2.212 2.542-6.285 3.813-12.219 3.813h-9.146v-25.84h9.214c5.53 0 9.442 1.155 11.737 3.465zm143.08 56.83 7.395-18.663h21.348l-10.131-28.31 12.672-31.985 36.293 96.185h-26.766l-6.201-17.227z"/>
 </g>
</svg>
